<mxfile host="app.diagrams.net" modified="2024-07-16T08:07:55.572Z" agent="Mozilla/5.0 (Macintosh; Intel Mac OS X 10_15_7) AppleWebKit/537.36 (KHTML, like Gecko) Chrome/126.0.0.0 Safari/537.36" etag="ROHNEMVqbI-t-raNt7O_" version="24.6.5" type="github">
  <diagram name="Page-1" id="PQpvzgl9xymPNwOv2N0A">
    <mxGraphModel dx="1578" dy="886" grid="1" gridSize="10" guides="1" tooltips="1" connect="1" arrows="1" fold="1" page="1" pageScale="1" pageWidth="827" pageHeight="1169" math="0" shadow="0">
      <root>
        <mxCell id="0" />
        <mxCell id="1" parent="0" />
        <mxCell id="KWS7t6jafoBLZ8HItT5k-1" value="Admin" style="swimlane;whiteSpace=wrap;html=1;" parent="1" vertex="1">
          <mxGeometry x="200" y="50" width="190" height="620" as="geometry" />
        </mxCell>
        <mxCell id="KWS7t6jafoBLZ8HItT5k-2" style="edgeStyle=orthogonalEdgeStyle;rounded=0;orthogonalLoop=1;jettySize=auto;html=1;exitX=0.5;exitY=1;exitDx=0;exitDy=0;entryX=0.5;entryY=0;entryDx=0;entryDy=0;" parent="KWS7t6jafoBLZ8HItT5k-1" source="KWS7t6jafoBLZ8HItT5k-3" target="KWS7t6jafoBLZ8HItT5k-4" edge="1">
          <mxGeometry relative="1" as="geometry" />
        </mxCell>
        <mxCell id="KWS7t6jafoBLZ8HItT5k-3" value="" style="ellipse;whiteSpace=wrap;html=1;aspect=fixed;fillColor=#030303;" parent="KWS7t6jafoBLZ8HItT5k-1" vertex="1">
          <mxGeometry x="80" y="40" width="30" height="30" as="geometry" />
        </mxCell>
        <mxCell id="KWS7t6jafoBLZ8HItT5k-4" value="Membuka halaman banner" style="rounded=1;whiteSpace=wrap;html=1;" parent="KWS7t6jafoBLZ8HItT5k-1" vertex="1">
          <mxGeometry x="35" y="90" width="120" height="40" as="geometry" />
        </mxCell>
        <mxCell id="HMWnwoRrJxDMSyxpaN5V-7" style="edgeStyle=orthogonalEdgeStyle;rounded=0;orthogonalLoop=1;jettySize=auto;html=1;exitX=0.5;exitY=1;exitDx=0;exitDy=0;entryX=0.5;entryY=0;entryDx=0;entryDy=0;" edge="1" parent="KWS7t6jafoBLZ8HItT5k-1" source="HMWnwoRrJxDMSyxpaN5V-4" target="HMWnwoRrJxDMSyxpaN5V-6">
          <mxGeometry relative="1" as="geometry" />
        </mxCell>
        <mxCell id="HMWnwoRrJxDMSyxpaN5V-4" value="Pilih operasi" style="rounded=1;whiteSpace=wrap;html=1;" vertex="1" parent="KWS7t6jafoBLZ8HItT5k-1">
          <mxGeometry x="40" y="160" width="120" height="40" as="geometry" />
        </mxCell>
        <mxCell id="HMWnwoRrJxDMSyxpaN5V-6" value="" style="rhombus;whiteSpace=wrap;html=1;" vertex="1" parent="KWS7t6jafoBLZ8HItT5k-1">
          <mxGeometry x="80" y="250" width="40" height="30" as="geometry" />
        </mxCell>
        <mxCell id="KWS7t6jafoBLZ8HItT5k-6" value="Sistem" style="swimlane;whiteSpace=wrap;html=1;" parent="1" vertex="1">
          <mxGeometry x="390" y="50" width="290" height="620" as="geometry" />
        </mxCell>
        <mxCell id="KWS7t6jafoBLZ8HItT5k-8" style="edgeStyle=orthogonalEdgeStyle;rounded=0;orthogonalLoop=1;jettySize=auto;html=1;exitX=0.5;exitY=1;exitDx=0;exitDy=0;entryX=0.5;entryY=0;entryDx=0;entryDy=0;" parent="KWS7t6jafoBLZ8HItT5k-6" target="KWS7t6jafoBLZ8HItT5k-14" edge="1">
          <mxGeometry relative="1" as="geometry">
            <mxPoint x="163.75" y="240" as="sourcePoint" />
          </mxGeometry>
        </mxCell>
        <mxCell id="KWS7t6jafoBLZ8HItT5k-12" style="edgeStyle=orthogonalEdgeStyle;rounded=0;orthogonalLoop=1;jettySize=auto;html=1;exitX=0;exitY=0.5;exitDx=0;exitDy=0;entryX=0.5;entryY=0;entryDx=0;entryDy=0;" parent="KWS7t6jafoBLZ8HItT5k-6" target="p34yP3oAxnCkHwa5mTD9-3" edge="1">
          <mxGeometry relative="1" as="geometry">
            <mxPoint x="123.75" y="300" as="sourcePoint" />
          </mxGeometry>
        </mxCell>
        <mxCell id="KWS7t6jafoBLZ8HItT5k-13" value="Ya" style="edgeLabel;html=1;align=center;verticalAlign=middle;resizable=0;points=[];" parent="KWS7t6jafoBLZ8HItT5k-12" vertex="1" connectable="0">
          <mxGeometry x="-0.5429" y="2" relative="1" as="geometry">
            <mxPoint as="offset" />
          </mxGeometry>
        </mxCell>
        <mxCell id="KWS7t6jafoBLZ8HItT5k-23" style="edgeStyle=orthogonalEdgeStyle;rounded=0;orthogonalLoop=1;jettySize=auto;html=1;exitX=1;exitY=0.5;exitDx=0;exitDy=0;" parent="KWS7t6jafoBLZ8HItT5k-6" target="KWS7t6jafoBLZ8HItT5k-22" edge="1">
          <mxGeometry relative="1" as="geometry">
            <mxPoint x="203.75" y="300" as="sourcePoint" />
          </mxGeometry>
        </mxCell>
        <mxCell id="p34yP3oAxnCkHwa5mTD9-1" value="Tidak" style="edgeLabel;html=1;align=center;verticalAlign=middle;resizable=0;points=[];" parent="KWS7t6jafoBLZ8HItT5k-23" vertex="1" connectable="0">
          <mxGeometry x="0.0329" relative="1" as="geometry">
            <mxPoint as="offset" />
          </mxGeometry>
        </mxCell>
        <mxCell id="KWS7t6jafoBLZ8HItT5k-15" style="edgeStyle=orthogonalEdgeStyle;rounded=0;orthogonalLoop=1;jettySize=auto;html=1;exitX=0.5;exitY=1;exitDx=0;exitDy=0;" parent="KWS7t6jafoBLZ8HItT5k-6" target="KWS7t6jafoBLZ8HItT5k-17" edge="1">
          <mxGeometry relative="1" as="geometry">
            <mxPoint x="90" y="500" as="sourcePoint" />
          </mxGeometry>
        </mxCell>
        <mxCell id="KWS7t6jafoBLZ8HItT5k-24" style="edgeStyle=orthogonalEdgeStyle;rounded=0;orthogonalLoop=1;jettySize=auto;html=1;exitX=0.5;exitY=1;exitDx=0;exitDy=0;entryX=1;entryY=0;entryDx=0;entryDy=0;" parent="KWS7t6jafoBLZ8HItT5k-6" target="KWS7t6jafoBLZ8HItT5k-17" edge="1">
          <mxGeometry relative="1" as="geometry">
            <mxPoint x="180" y="480" as="targetPoint" />
            <mxPoint x="220" y="405" as="sourcePoint" />
          </mxGeometry>
        </mxCell>
        <mxCell id="p34yP3oAxnCkHwa5mTD9-5" style="edgeStyle=orthogonalEdgeStyle;rounded=0;orthogonalLoop=1;jettySize=auto;html=1;exitX=0.5;exitY=1;exitDx=0;exitDy=0;" parent="KWS7t6jafoBLZ8HItT5k-6" target="KWS7t6jafoBLZ8HItT5k-16" edge="1">
          <mxGeometry relative="1" as="geometry">
            <mxPoint x="90" y="390" as="sourcePoint" />
          </mxGeometry>
        </mxCell>
        <mxCell id="HMWnwoRrJxDMSyxpaN5V-3" style="edgeStyle=orthogonalEdgeStyle;rounded=0;orthogonalLoop=1;jettySize=auto;html=1;exitX=0.5;exitY=1;exitDx=0;exitDy=0;" edge="1" parent="KWS7t6jafoBLZ8HItT5k-6" source="HMWnwoRrJxDMSyxpaN5V-1" target="HMWnwoRrJxDMSyxpaN5V-2">
          <mxGeometry relative="1" as="geometry" />
        </mxCell>
        <mxCell id="HMWnwoRrJxDMSyxpaN5V-1" value="" style="rhombus;whiteSpace=wrap;html=1;" vertex="1" parent="KWS7t6jafoBLZ8HItT5k-6">
          <mxGeometry x="110" y="95" width="40" height="30" as="geometry" />
        </mxCell>
        <mxCell id="HMWnwoRrJxDMSyxpaN5V-2" value="Menampilkan list banner" style="rounded=1;whiteSpace=wrap;html=1;" vertex="1" parent="KWS7t6jafoBLZ8HItT5k-6">
          <mxGeometry x="70" y="160" width="120" height="40" as="geometry" />
        </mxCell>
        <mxCell id="KWS7t6jafoBLZ8HItT5k-19" style="edgeStyle=orthogonalEdgeStyle;rounded=0;orthogonalLoop=1;jettySize=auto;html=1;exitX=1;exitY=0.5;exitDx=0;exitDy=0;entryX=0;entryY=0.5;entryDx=0;entryDy=0;" parent="1" source="KWS7t6jafoBLZ8HItT5k-4" target="HMWnwoRrJxDMSyxpaN5V-1" edge="1">
          <mxGeometry relative="1" as="geometry">
            <mxPoint x="480" y="160" as="targetPoint" />
          </mxGeometry>
        </mxCell>
        <mxCell id="KWS7t6jafoBLZ8HItT5k-21" style="edgeStyle=orthogonalEdgeStyle;rounded=0;orthogonalLoop=1;jettySize=auto;html=1;exitX=0.5;exitY=1;exitDx=0;exitDy=0;entryX=0;entryY=0.5;entryDx=0;entryDy=0;" parent="1" target="KWS7t6jafoBLZ8HItT5k-9" edge="1">
          <mxGeometry relative="1" as="geometry">
            <mxPoint x="295" y="240" as="sourcePoint" />
          </mxGeometry>
        </mxCell>
        <mxCell id="HMWnwoRrJxDMSyxpaN5V-5" style="edgeStyle=orthogonalEdgeStyle;rounded=0;orthogonalLoop=1;jettySize=auto;html=1;exitX=0;exitY=0.5;exitDx=0;exitDy=0;" edge="1" parent="1" source="HMWnwoRrJxDMSyxpaN5V-2" target="HMWnwoRrJxDMSyxpaN5V-4">
          <mxGeometry relative="1" as="geometry" />
        </mxCell>
      </root>
    </mxGraphModel>
  </diagram>
</mxfile>
